<svg width="70" height="70" viewBox="0 0 70 70" fill="none" xmlns="http://www.w3.org/2000/svg">
<path d="M13.4633 34.9998C12.1664 34.9998 11.0571 34.538 10.1354 33.6144C9.21375 32.6908 8.75194 31.5825 8.75 30.2894V16.3769C8.75 15.0819 9.21181 13.9736 10.1354 13.0519C11.059 12.1303 12.1674 11.6684 13.4604 11.6665H56.5396C57.8346 11.6665 58.9429 12.1283 59.8646 13.0519C60.7863 13.9755 61.2481 15.0839 61.25 16.3769V30.2894C61.25 31.5844 60.7882 32.6928 59.8646 33.6144C58.941 34.5361 57.8326 34.9979 56.5396 34.9998H50.5371V26.5882C50.5371 25.2912 50.0753 24.1819 49.1517 23.2603C48.2281 22.3386 47.1197 21.8768 45.8267 21.8748H24.2317C22.9347 21.8748 21.8254 22.3366 20.9037 23.2603C19.9821 24.1839 19.5203 25.2922 19.5183 26.5853V34.9998H13.4633ZM21.7642 41.1715H24.7333C24.7333 44.3818 23.6017 47.1098 21.3383 49.3557C19.0731 51.6015 16.3343 52.7244 13.1221 52.7244V49.7494C15.5138 49.7494 17.5515 48.9162 19.2354 47.2498C20.9174 45.5796 21.7583 43.5534 21.7583 41.1715M22.435 34.9998V26.5882C22.435 26.0632 22.6042 25.6325 22.9425 25.2961C23.2789 24.9597 23.7086 24.7915 24.2317 24.7915H45.8267C46.3497 24.7915 46.7794 24.9597 47.1158 25.2961C47.4522 25.6325 47.6204 26.0632 47.6204 26.5882V34.9998H22.435ZM33.5417 55.7548V41.1715H36.4583V55.7548H33.5417ZM45.3221 41.1715H48.2942C48.2942 43.5632 49.1283 45.5912 50.7967 47.2557C52.465 48.9201 54.4911 49.7523 56.875 49.7523V52.7244C53.6628 52.7244 50.9338 51.5976 48.6879 49.344C46.4421 47.0904 45.3221 44.3662 45.3221 41.1715Z" fill="#695441"/>
</svg>
