<svg width="70" height="70" viewBox="0 0 70 70" fill="none" xmlns="http://www.w3.org/2000/svg">
<path d="M60.2383 3.387C60.1426 3.387 60.0469 3.387 59.9512 3.40067C57.5996 3.54559 55.3711 4.90048 54.0586 6.83368C54.5918 7.10301 55.0977 7.44618 55.5762 7.87411C55.7402 8.02176 55.9043 8.17489 56.041 8.33075C57.0391 6.85145 59.1719 5.68934 60.8398 5.87528C61.7559 5.97645 62.5352 6.36747 63.2051 7.35731C63.875 8.34579 64.3945 10.011 64.3945 12.5813V36.6411H66.8555V12.5786C66.8555 9.68016 66.2812 7.51727 65.2422 5.97645C64.2031 4.437 62.6582 3.59755 61.1133 3.42528C60.8262 3.39384 60.5254 3.38153 60.2383 3.387ZM50.75 8.46883C50.3809 8.46883 50.0117 8.49755 49.6426 8.5577C48.8086 8.69852 48.0293 9.03212 47.4141 9.38622L54.9746 16.147C55.2617 15.4907 55.5078 14.6841 55.5625 13.8364C55.6445 12.3681 55.2617 10.8901 53.9355 9.70887C52.9375 8.81884 51.8438 8.48251 50.75 8.46883ZM2.1875 39.5122V41.9731H67.8125V39.5122H2.1875ZM3.45762 44.4341C3.65176 52.104 5.63281 57.7778 9.30234 61.6606H60.7031C62.4531 59.6782 63.9844 56.2192 64.9824 52.7056C65.8711 49.6157 66.3633 46.5532 66.5137 44.4341H3.45762ZM11.5541 64.1216L9.91348 66.5825L11.9615 67.9497L14.5195 64.1216H11.5541ZM57.668 64.1216L60.2246 67.9497L62.2754 66.5825L60.6348 64.1216H57.668Z" fill="#695441"/>
</svg>
