<svg width="60" height="60" viewBox="0 0 60 60" fill="none" xmlns="http://www.w3.org/2000/svg">
<path d="M7.5 45V32.5C7.5 31.76 7.71333 30.9717 8.14 30.135C8.56667 29.2983 9.18667 28.67 10 28.25V22.5C10 21.09 10.4808 19.9042 11.4425 18.9425C12.4042 17.9808 13.59 17.5 15 17.5H26.25C27.1117 17.5 27.8475 17.6775 28.4575 18.0325C29.0658 18.3858 29.58 18.875 30 19.5C30.42 18.875 30.9342 18.3858 31.5425 18.0325C32.1525 17.6775 32.8883 17.5 33.75 17.5H45C46.41 17.5 47.5958 17.9808 48.5575 18.9425C49.5192 19.9042 50 21.09 50 22.5V28.25C50.815 28.67 51.435 29.2983 51.86 30.135C52.2867 30.9717 52.5 31.76 52.5 32.5V45H50V40H10V45H7.5ZM31.25 27.5H47.5V22.5C47.5 21.7917 47.26 21.1983 46.78 20.72C46.3 20.2417 45.7067 20.0017 45 20H33.75C33.0417 20 32.4483 20.24 31.97 20.72C31.4917 21.2 31.2517 21.7933 31.25 22.5V27.5ZM12.5 27.5H28.75V22.5C28.75 21.7917 28.51 21.1983 28.03 20.72C27.55 20.2417 26.9567 20.0017 26.25 20H15C14.2917 20 13.6983 20.24 13.22 20.72C12.7417 21.2 12.5017 21.7933 12.5 22.5V27.5Z" fill="#1F1C18"/>
</svg>
