<svg width="70" height="70" viewBox="0 0 70 70" fill="none" xmlns="http://www.w3.org/2000/svg">
<path d="M9.4209 50.7066V47.7899H60.5792V50.7066H9.4209ZM11.6667 43.7504V43.0795C11.6667 37.3434 13.6209 32.3822 17.5292 28.1958C21.4415 24.0133 26.2928 21.5147 32.0834 20.6999V19.4079C32.0834 18.6262 32.3741 17.9447 32.9555 17.3633C33.5369 16.7799 34.2184 16.4883 35.0001 16.4883C35.7817 16.4883 36.4633 16.7799 37.0446 17.3633C37.626 17.9466 37.9167 18.6272 37.9167 19.4049V20.697C43.7209 21.5137 48.5742 24.0133 52.4767 28.1958C56.3792 32.3783 58.3315 37.3395 58.3334 43.0795V43.7504H11.6667Z" fill="#695441"/>
</svg>
