<svg width="70" height="70" viewBox="0 0 70 70" fill="none" xmlns="http://www.w3.org/2000/svg">
<path fill-rule="evenodd" clip-rule="evenodd" d="M63.4375 35C63.4375 42.5421 60.4414 49.7753 55.1083 55.1083C49.7753 60.4414 42.5421 63.4375 35 63.4375C27.4579 63.4375 20.2247 60.4414 14.8917 55.1083C9.55859 49.7753 6.5625 42.5421 6.5625 35C6.5625 27.4579 9.55859 20.2247 14.8917 14.8917C20.2247 9.55859 27.4579 6.5625 35 6.5625C42.5421 6.5625 49.7753 9.55859 55.1083 14.8917C60.4414 20.2247 63.4375 27.4579 63.4375 35ZM70 35C70 44.2826 66.3125 53.185 59.7487 59.7487C53.185 66.3125 44.2826 70 35 70C25.7174 70 16.815 66.3125 10.2513 59.7487C3.68749 53.185 0 44.2826 0 35C0 25.7174 3.68749 16.815 10.2513 10.2513C16.815 3.68749 25.7174 0 35 0C44.2826 0 53.185 3.68749 59.7487 10.2513C66.3125 16.815 70 25.7174 70 35ZM38.2812 16.4062C38.2812 15.536 37.9355 14.7014 37.3202 14.0861C36.7048 13.4707 35.8702 13.125 35 13.125C34.1298 13.125 33.2952 13.4707 32.6798 14.0861C32.0645 14.7014 31.7188 15.536 31.7188 16.4062V36.3563L32.6812 37.3187L42.5425 47.18C42.8429 47.5024 43.2051 47.761 43.6076 47.9403C44.0101 48.1196 44.4446 48.2161 44.8852 48.2238C45.3258 48.2316 45.7634 48.1506 46.172 47.9855C46.5806 47.8205 46.9517 47.5749 47.2633 47.2633C47.5749 46.9517 47.8205 46.5806 47.9855 46.172C48.1506 45.7634 48.2316 45.3258 48.2238 44.8852C48.2161 44.4446 48.1196 44.0101 47.9403 43.6076C47.761 43.2051 47.5024 42.8429 47.18 42.5425L38.2812 33.6394V16.4062Z" fill="#1F1C18"/>
</svg>
