<svg width="70" height="70" viewBox="0 0 70 70" fill="none" xmlns="http://www.w3.org/2000/svg">
<path d="M19.2968 61.25C17.9532 61.25 16.8322 60.8008 15.9339 59.9025C15.0356 59.0042 14.5854 57.8832 14.5835 56.5396V13.4604C14.5835 12.1187 15.0336 10.9988 15.9339 10.1004C16.8342 9.20208 17.9552 8.75194 19.2968 8.75H55.4168V11.6667H48.1252V15.0325C48.1252 15.6722 47.9113 16.206 47.4835 16.6338C47.0557 17.0615 46.521 17.2754 45.8793 17.2754H27.0377C26.396 17.2754 25.8613 17.0615 25.4335 16.6338C25.0057 16.206 24.7918 15.6712 24.7918 15.0296V11.6667H19.2968C18.7718 11.6667 18.3411 11.8349 18.0047 12.1712C17.6684 12.5076 17.5002 12.9383 17.5002 13.4633V56.5396C17.5002 57.0626 17.6684 57.4924 18.0047 57.8288C18.3411 58.1651 18.7718 58.3333 19.2968 58.3333H30.6602C28.9238 57.2833 27.5111 55.9271 26.4222 54.2646C25.3353 52.6021 24.7918 50.5925 24.7918 48.2358V36.5692H48.1252V48.2358C48.1252 50.5925 47.5807 52.6021 46.4918 54.2646C45.4029 55.9251 43.9922 57.2814 42.2597 58.3333H55.4168V61.25H19.2968ZM36.4585 29.1667C37.0613 29.1667 37.5863 28.9431 38.0335 28.4958C38.4807 28.0486 38.7043 27.5236 38.7043 26.9208C38.7043 26.3181 38.4807 25.794 38.0335 25.3488C37.5863 24.9035 37.0613 24.6799 36.4585 24.6779C35.8557 24.676 35.3307 24.8996 34.8835 25.3488C34.4363 25.7979 34.2127 26.3229 34.2127 26.9237C34.2127 27.5246 34.4363 28.0496 34.8835 28.4988C35.3307 28.9479 35.8557 29.1706 36.4585 29.1667Z" fill="#695441"/>
</svg>
