<svg width="78" height="70" viewBox="0 0 78 70" fill="none" xmlns="http://www.w3.org/2000/svg">
<path d="M34.9125 5.27329L33.2352 15.6088L26.5738 16.6951C26.1904 16.8069 26.2383 17.2702 26.5738 17.3501L33.2352 18.4363L34.9125 28.7719C35.0243 29.1393 35.5195 29.0754 35.5675 28.7719L37.2608 18.4363L43.9222 17.3501C44.2896 17.2223 44.2417 16.759 43.9222 16.6951L37.2608 15.6088L35.5675 5.27329C35.4556 4.89789 34.9764 4.97137 34.9125 5.27329ZM71.3505 11.1839L70.3281 17.1744L66.2866 17.7974C65.9191 17.9252 65.9671 18.4044 66.2866 18.4683L70.3281 19.0913L71.3505 25.0818C71.4783 25.4652 71.9256 25.4172 72.0055 25.0818L73.0278 19.0913L77.0694 18.4683C77.4368 18.3405 77.3889 17.8613 77.0694 17.7974L73.0278 17.1744L72.0055 11.1839C71.8936 10.8149 71.4144 10.874 71.3505 11.1839ZM57.7721 25.9124C60.5038 31.6633 58.5708 33.8039 41.1586 33.8039C23.7622 33.8039 29.6569 42.7976 29.6569 42.7976H33.8262C33.7304 35.0499 66.4303 38.756 63.7466 30.0658C76.3186 40.657 36.9892 36.1522 39.6569 42.7976H65.0725C72.6285 42.7976 73.7786 29.315 57.7721 25.9124ZM14.0385 27.7974L13.0146 33.7879L8.98257 34.4269C8.59439 34.5387 8.66947 35.018 8.98257 35.0819L13.0146 35.7049L14.0385 41.7113C14.1551 42.0787 14.6328 42.0148 14.6935 41.7113L15.7111 35.7049L19.7526 35.0819C20.12 34.97 20.0561 34.4748 19.7526 34.4269L15.7111 33.7879L14.6935 27.7974C14.5769 27.43 14.0992 27.4939 14.0385 27.7974ZM27.6441 44.7624L28.4428 59.1875H31.3182L31.7975 48.836L32.2767 59.1875H34.9285L35.4077 48.836L35.8869 59.1875H38.5228L39.002 48.836L39.4812 59.1875H42.133L42.6122 48.836L43.0915 59.1875H45.7273L46.2065 48.836L46.6858 59.1875H49.3375L49.8168 48.836L50.296 59.1875H52.9318L53.4111 48.836L53.8903 59.1875H56.5421L57.0213 48.836L57.5005 59.1875H60.1523L60.6316 48.836L61.1108 59.1875H63.7466L64.2258 48.836L64.7051 59.1875H67.9639L68.7626 44.7624H27.6441ZM4.41064 61.983V68.8521H14.3596C15.2957 68.8521 16.2222 68.7403 17.1168 68.5326C20.168 67.8457 23.2031 67.8777 26.2383 68.5486C27.1329 68.7403 28.0434 68.8521 28.954 68.8521H67.9C69.162 68.8521 70.2003 67.8138 70.2003 66.5358V61.983H4.41064Z" fill="#695441"/>
</svg>
