<svg width="70" height="70" viewBox="0 0 70 70" fill="none" xmlns="http://www.w3.org/2000/svg">
<path d="M52.4997 16.9403C51.1425 16.9403 49.9807 16.4571 49.0143 15.4907C48.0479 14.5243 47.5647 13.3625 47.5647 12.0053C47.5647 10.6481 48.0479 9.48531 49.0143 8.51697C49.9807 7.54864 51.1425 7.06544 52.4997 7.06739C53.8569 7.06933 55.0187 7.55253 55.9851 8.51697C56.9515 9.48142 57.4347 10.6442 57.4347 12.0053C57.4347 13.3625 56.9515 14.5243 55.9851 15.4907C55.0187 16.4571 53.8569 16.9403 52.4997 16.9403ZM48.7955 62.7086V40.0461C48.7955 38.3486 48.4105 36.8193 47.6405 35.4582C46.8686 34.0971 45.7233 33.0179 44.2047 32.2207L47.2614 24.2028C47.6503 23.1373 48.3299 22.2768 49.3001 21.6216C50.2704 20.9663 51.3369 20.6406 52.4997 20.6445C53.6625 20.6484 54.729 20.9663 55.6993 21.5982C56.6696 22.2302 57.3501 23.0993 57.741 24.2057L65.6247 44.8761H57.8839V62.7086H48.7955ZM36.4522 33.3174C35.3905 33.3174 34.4903 32.946 33.7514 32.2032C33.0125 31.4604 32.643 30.5582 32.643 29.4966C32.643 28.4349 33.0154 27.5356 33.7601 26.7986C34.5049 26.0617 35.4061 25.6922 36.4639 25.6903C37.5217 25.6884 38.4219 26.0597 39.1647 26.8045C39.9075 27.5492 40.2769 28.4514 40.273 29.5111C40.2692 30.5709 39.8978 31.4702 39.1589 32.2091C38.4142 32.9479 37.5119 33.3174 36.4522 33.3174ZM16.0414 16.9403C14.6842 16.9403 13.5224 16.4571 12.556 15.4907C11.5896 14.5243 11.1064 13.3625 11.1064 12.0053C11.1064 10.6481 11.5896 9.48531 12.556 8.51697C13.5224 7.54864 14.6842 7.06544 16.0414 7.06739C17.3986 7.06933 18.5604 7.55253 19.5268 8.51697C20.4932 9.48142 20.9764 10.6442 20.9764 12.0053C20.9764 13.3625 20.4932 14.5243 19.5268 15.4907C18.5604 16.4571 17.3986 16.9403 16.0414 16.9403ZM10.8789 62.7086V43.5257H6.06055V26.3641C6.06055 25.0671 6.52235 23.9578 7.44596 23.0361C8.36957 22.1145 9.47791 21.6527 10.771 21.6507H21.3176C22.6126 21.6507 23.721 22.1125 24.6426 23.0361C25.5643 23.9597 26.0261 25.0681 26.028 26.3611V43.5257H21.201V62.7086H10.8789ZM32.8705 62.7086V52.5003H29.9539V40.0461C29.9539 39.0506 30.3019 38.2038 30.998 37.5057C31.6942 36.8077 32.5419 36.4586 33.5414 36.4586H39.3747C40.3722 36.4586 41.22 36.8077 41.918 37.5057C42.6161 38.2038 42.9651 39.0516 42.9651 40.0491V52.5003H40.0485V62.7086H32.8705Z" fill="#695441"/>
</svg>
