<svg width="70" height="70" viewBox="0 0 70 70" fill="none" xmlns="http://www.w3.org/2000/svg">
<path d="M16.5977 4.51172V8.61328H27.2754V4.51172H16.5977ZM18.1016 11.0742C15.8594 13.341 12.2295 17.3906 12.2295 20.7812V26.1133H31.6504V20.7812C31.6504 17.3906 28.0273 13.341 25.7715 11.0742H18.1016ZM12.2295 28.5742V30.7617H31.6504V28.5742H12.2295ZM12.2295 33.2227V35.4102H31.6504V33.2227H12.2295ZM12.2295 37.8711V40.0586H31.6504V37.8711H12.2295ZM12.2295 42.5195V65.7891C18.1152 67.5254 25.7578 67.5254 31.6504 65.7891V42.5195H12.2295ZM42.9707 47.168L44.9258 66.582H47.168L46.2246 50.3809L48.6856 50.2441L49.6289 66.582H55.8223L57.7773 47.168H42.9707Z" fill="#695441"/>
</svg>
