<svg width="45" height="46" viewBox="0 0 45 46" fill="none" xmlns="http://www.w3.org/2000/svg">
<path d="M11.6175 33.2844C13.2113 32.1369 14.9025 31.23 16.6913 30.5638C18.4788 29.8963 20.415 29.5625 22.5 29.5625C24.585 29.5625 26.5213 29.8963 28.3088 30.5638C30.0963 31.2313 31.7875 32.1375 33.3825 33.2825C34.62 32.0012 35.6156 30.4888 36.3694 28.745C37.1231 26.9988 37.5 25.0837 37.5 23C37.5 18.8438 36.0394 15.3044 33.1181 12.3819C30.1969 9.45937 26.6575 7.99875 22.5 8C18.3425 8.00125 14.8031 9.4625 11.8819 12.3837C8.96063 15.305 7.5 18.8438 7.5 23C7.5 25.0837 7.87688 26.9988 8.63063 28.745C9.38438 30.49 10.38 32.0025 11.6175 33.2825M22.5 23.9375C20.9213 23.9375 19.5888 23.395 18.5025 22.31C17.4163 21.225 16.8738 19.8925 16.875 18.3125C16.8763 16.7325 17.4188 15.4 18.5025 14.315C19.5863 13.23 20.9188 12.6875 22.5 12.6875C24.0813 12.6875 25.4138 13.23 26.4975 14.315C27.5813 15.4 28.1238 16.7325 28.125 18.3125C28.1263 19.8925 27.5838 21.225 26.4975 22.31C25.4113 23.395 24.0788 23.9375 22.5 23.9375ZM22.5 39.875C20.1463 39.875 17.9431 39.4369 15.8906 38.5606C13.8381 37.6844 12.0519 36.4869 10.5319 34.9681C9.01188 33.4494 7.81438 31.6631 6.93938 29.6094C6.06438 27.5556 5.62625 25.3525 5.625 23C5.62375 20.6475 6.06188 18.4444 6.93938 16.3906C7.81688 14.3369 9.01438 12.5506 10.5319 11.0319C12.0519 9.51313 13.8381 8.31562 15.8906 7.43937C17.9431 6.56312 20.1463 6.125 22.5 6.125C24.8538 6.125 27.0569 6.56312 29.1094 7.43937C31.1619 8.31562 32.9481 9.51313 34.4681 11.0319C35.9881 12.5506 37.1856 14.3369 38.0606 16.3906C38.9356 18.4444 39.3738 20.6475 39.375 23C39.3763 25.3525 38.9381 27.5556 38.0606 29.6094C37.1831 31.6631 35.9856 33.4494 34.4681 34.9681C32.9481 36.4869 31.1619 37.6844 29.1094 38.5606C27.0569 39.4369 24.8538 39.875 22.5 39.875Z" fill="#1F1C18"/>
</svg>
