<svg width="70" height="70" viewBox="0 0 70 70" fill="none" xmlns="http://www.w3.org/2000/svg">
<path fill-rule="evenodd" clip-rule="evenodd" d="M17.5 0C13.4091 0 10 3.25936 10 7.3931V26.8782C10.0474 26.8761 10.095 26.875 10.1429 26.875H59.857C59.905 26.875 59.9525 26.8761 60 26.8782V7.3931C60 3.25936 56.591 0 52.5 0H17.5ZM10 56.324V33.1218C10.0474 33.1239 10.095 33.125 10.1429 33.125H59.857C59.905 33.125 59.9525 33.1239 60 33.1218V56.324C60 60.0285 57.2625 63.0305 53.75 63.6145V66.2175C53.75 68.2885 52.071 69.9675 50 69.9675C47.929 69.9675 46.25 68.2885 46.25 66.2175V63.7175H23.75V66.2175C23.75 68.2885 22.0711 69.9675 20 69.9675C17.929 69.9675 16.25 68.2885 16.25 66.2175V63.6145C12.7375 63.0305 10 60.0285 10 56.324ZM25.2063 13.0464C25.2063 11.3206 23.8072 9.9214 22.0813 9.9214C20.3554 9.9214 18.9563 11.3206 18.9563 13.0464V15.5464C18.9563 17.2723 20.3554 18.6714 22.0813 18.6714C23.8072 18.6714 25.2063 17.2723 25.2063 15.5464V13.0464Z" fill="#695441"/>
</svg>
