<svg width="60" height="60" viewBox="0 0 60 60" fill="none" xmlns="http://www.w3.org/2000/svg">
<path d="M11.2751 26.635L6.2251 17.915L19.2651 10.4325H20.8651C21.5651 12.5292 22.6859 14.2317 24.2276 15.54C25.7693 16.8467 27.6934 17.5 30.0001 17.5C32.3068 17.5 34.2318 16.8467 35.7751 15.54C37.3151 14.2317 38.4351 12.5292 39.1351 10.4325H40.7351L53.7101 17.9775L48.7276 26.635L42.5001 23.2075V40.7825L40.8226 42.25C40.7293 42.3333 40.6101 42.4133 40.4651 42.49C40.3218 42.5667 40.1668 42.6308 40.0001 42.6825V18.9375L47.8126 23.25L50.3126 18.875L40.7501 13.3125C39.7501 15.3542 38.2893 16.9792 36.3676 18.1875C34.4459 19.3958 32.3234 20 30.0001 20C27.6768 20 25.5543 19.3958 23.6326 18.1875C21.7109 16.9792 20.2501 15.3542 19.2501 13.3125L9.6251 18.875L12.1876 23.25L20.0001 18.9375V32.8375C19.5734 32.8875 19.1518 32.9342 18.7351 32.9775C18.3184 33.0208 17.9068 33.1133 17.5001 33.255V23.205L11.2751 26.635ZM11.7701 45.4575L10.1526 43.5675L14.6301 39.76C15.4918 39.0233 16.4734 38.46 17.5751 38.07C18.6768 37.68 19.7976 37.485 20.9376 37.485C22.0776 37.485 23.1884 37.68 24.2701 38.07C25.3518 38.46 26.3226 39.0233 27.1826 39.76L34.4326 45.9475C35.0609 46.4925 35.7909 46.8958 36.6226 47.1575C37.4543 47.4192 38.2884 47.5492 39.1251 47.5475C39.9718 47.5475 40.7976 47.42 41.6026 47.165C42.4093 46.9083 43.1268 46.5025 43.7551 45.9475L48.2301 42.0775L49.8451 44.0275L45.3701 47.8375C44.5084 48.5742 43.5376 49.1267 42.4576 49.495C41.3759 49.8633 40.2651 50.0475 39.1251 50.0475C37.9851 50.0475 36.8643 49.8633 35.7626 49.495C34.6626 49.1267 33.6809 48.5742 32.8176 47.8375L25.5676 41.65C24.9393 41.105 24.2226 40.7017 23.4176 40.44C22.6109 40.1783 21.7843 40.0475 20.9376 40.0475C20.1009 40.0475 19.2668 40.1783 18.4351 40.44C17.6034 40.7017 16.8734 41.105 16.2451 41.65L11.7701 45.4575Z" fill="#695441"/>
</svg>
