<svg width="30" height="30" viewBox="0 0 30 30" fill="none" xmlns="http://www.w3.org/2000/svg">
<path d="M15 1.875C12.5136 1.875 10.129 2.86272 8.37087 4.62087C6.61272 6.37903 5.625 8.7636 5.625 11.25C5.625 13.395 6.84375 15.6562 8.23688 17.5725C9.65625 19.5281 11.3812 21.2962 12.6356 22.485C13.2721 23.094 14.1191 23.4339 15 23.4339C15.8809 23.4339 16.7279 23.094 17.3644 22.485C18.6187 21.2962 20.3438 19.5281 21.7631 17.5725C23.1544 15.6562 24.375 13.395 24.375 11.25C24.375 10.0189 24.1325 8.79977 23.6614 7.66234C23.1902 6.52492 22.4997 5.49142 21.6291 4.62087C20.7586 3.75032 19.7251 3.05977 18.5877 2.58863C17.4502 2.11749 16.2311 1.875 15 1.875ZM17.8125 11.25C17.8125 11.9959 17.5162 12.7113 16.9887 13.2387C16.4613 13.7662 15.7459 14.0625 15 14.0625C14.2541 14.0625 13.5387 13.7662 13.0113 13.2387C12.4838 12.7113 12.1875 11.9959 12.1875 11.25C12.1875 10.5041 12.4838 9.78871 13.0113 9.26126C13.5387 8.73382 14.2541 8.4375 15 8.4375C15.7459 8.4375 16.4613 8.73382 16.9887 9.26126C17.5162 9.78871 17.8125 10.5041 17.8125 11.25ZM22.3969 19.8281C21.96 20.3719 21.5119 20.8894 21.0712 21.3787C21.39 21.4688 21.69 21.565 21.9713 21.6675C22.845 21.9862 23.4862 22.3406 23.8912 22.6894C24.2981 23.04 24.375 23.295 24.375 23.4394C24.375 23.58 24.3 23.835 23.8912 24.1856C23.4862 24.5344 22.845 24.8906 21.9713 25.2075C20.2331 25.8413 17.7675 26.25 15 26.25C12.2325 26.25 9.76875 25.8413 8.02875 25.2075C7.155 24.8906 6.51375 24.5344 6.10875 24.1856C5.70187 23.835 5.625 23.58 5.625 23.4375C5.625 23.2969 5.7 23.04 6.10875 22.6875C6.51375 22.3406 7.155 21.9844 8.02875 21.6675C8.31 21.565 8.61 21.4688 8.92875 21.3787C8.48813 20.8913 8.04 20.37 7.60312 19.8281L7.3875 19.905C6.39375 20.2669 5.52562 20.7188 4.88625 21.2663C4.25062 21.8137 3.75 22.5431 3.75 23.4375C3.75 24.3319 4.25062 25.0613 4.88625 25.6087C5.52375 26.1581 6.39563 26.61 7.3875 26.97C9.38063 27.6956 12.0731 28.125 15 28.125C17.9269 28.125 20.6194 27.6938 22.6125 26.97C23.6063 26.61 24.4744 26.1581 25.1138 25.6087C25.7494 25.0613 26.25 24.3319 26.25 23.4375C26.25 22.5431 25.7494 21.8137 25.1138 21.2663C24.4762 20.7188 23.6044 20.265 22.6125 19.905L22.3969 19.8281Z" fill="#1F1C18"/>
</svg>
