<svg width="30" height="30" viewBox="0 0 30 30" fill="none" xmlns="http://www.w3.org/2000/svg">
<path fill-rule="evenodd" clip-rule="evenodd" d="M15 16.25C17.995 16.25 20.7188 17.1175 22.7225 18.34C23.7225 18.95 24.5775 19.67 25.195 20.4525C25.8025 21.2212 26.25 22.1413 26.25 23.125C26.25 24.1812 25.7362 25.0138 24.9963 25.6075C24.2962 26.17 23.3725 26.5425 22.3913 26.8025C20.4188 27.3237 17.7863 27.5 15 27.5C12.2137 27.5 9.58125 27.325 7.60875 26.8025C6.6275 26.5425 5.70375 26.17 5.00375 25.6075C4.2625 25.0125 3.75 24.1812 3.75 23.125C3.75 22.1413 4.1975 21.2213 4.805 20.4513C5.4225 19.67 6.27625 18.9513 7.2775 18.3387C9.28125 17.1187 12.0063 16.25 15 16.25ZM15 18.75C12.4712 18.75 10.1962 19.4875 8.58 20.4737C7.77125 20.9662 7.16125 21.5012 6.7675 22.0012C6.3625 22.5138 6.25 22.9013 6.25 23.125C6.25 23.2775 6.29625 23.4388 6.56875 23.6575C6.88 23.9075 7.42125 24.1663 8.24875 24.385C9.89625 24.8225 12.2638 25 15 25C17.7375 25 20.1038 24.8212 21.75 24.385C22.5787 24.1663 23.12 23.9075 23.4313 23.6575C23.7038 23.4388 23.75 23.2775 23.75 23.125C23.75 22.9 23.6375 22.5138 23.2337 22.0012C22.8387 21.5012 22.2288 20.9662 21.42 20.4737C19.8037 19.4862 17.5288 18.75 15 18.75ZM15 2.5C16.6576 2.5 18.2473 3.15848 19.4194 4.33058C20.5915 5.50269 21.25 7.0924 21.25 8.75C21.25 10.4076 20.5915 11.9973 19.4194 13.1694C18.2473 14.3415 16.6576 15 15 15C13.3424 15 11.7527 14.3415 10.5806 13.1694C9.40848 11.9973 8.75 10.4076 8.75 8.75C8.75 7.0924 9.40848 5.50269 10.5806 4.33058C11.7527 3.15848 13.3424 2.5 15 2.5ZM15 5C14.5075 5 14.0199 5.097 13.5649 5.28545C13.11 5.47391 12.6966 5.75013 12.3483 6.09835C12.0001 6.44657 11.7239 6.85997 11.5355 7.31494C11.347 7.76991 11.25 8.25754 11.25 8.75C11.25 9.24246 11.347 9.73009 11.5355 10.1851C11.7239 10.64 12.0001 11.0534 12.3483 11.4017C12.6966 11.7499 13.11 12.0261 13.5649 12.2145C14.0199 12.403 14.5075 12.5 15 12.5C15.9946 12.5 16.9484 12.1049 17.6517 11.4017C18.3549 10.6984 18.75 9.74456 18.75 8.75C18.75 7.75544 18.3549 6.80161 17.6517 6.09835C16.9484 5.39509 15.9946 5 15 5Z" fill="#1F1C18"/>
</svg>
