<svg width="50" height="50" viewBox="0 0 50 50" fill="none" xmlns="http://www.w3.org/2000/svg">
<path d="M25.6248 4.16667H24.9998C22.264 4.16667 19.5549 4.70554 17.0273 5.75251C14.4996 6.79948 12.203 8.33405 10.2684 10.2686C6.36144 14.1756 4.1665 19.4747 4.1665 25C4.1665 30.5253 6.36144 35.8244 10.2684 39.7314C12.203 41.6659 14.4996 43.2005 17.0273 44.2475C19.5549 45.2945 22.264 45.8333 24.9998 45.8333C31.2498 45.8333 34.7915 43.75 38.5415 40.625C27.0832 43.75 16.6665 35.4167 16.6665 25C16.6665 14.5833 27.0832 6.25 38.5415 9.375C36.848 7.68475 34.8317 6.35256 32.6126 5.45778C30.3936 4.56299 28.0171 4.12391 25.6248 4.16667ZM34.9998 12.9167L31.8748 20.2083L24.1665 20.8333L30.2082 26.0417L28.3332 33.3333L34.9998 29.1667L41.6665 33.3333L39.5832 26.0417L45.8332 20.8333L38.1248 20.2083L34.9998 12.9167Z" fill="#695441"/>
</svg>
