<svg width="48" height="48" viewBox="0 0 48 48" fill="none" xmlns="http://www.w3.org/2000/svg">
<path d="M34.5 4C34.5 3.46957 34.7107 2.96086 35.0858 2.58579C35.4609 2.21071 35.9696 2 36.5 2H44C44.5304 2 45.0391 2.21071 45.4142 2.58579C45.7893 2.96086 46 3.46957 46 4V14C46 14.5304 45.7893 15.0391 45.4142 15.4142C45.0391 15.7893 44.5304 16 44 16H42V44.5C42 44.8978 41.842 45.2794 41.5607 45.5607C41.2794 45.842 40.8978 46 40.5 46C40.1022 46 39.7206 45.842 39.4393 45.5607C39.158 45.2794 39 44.8978 39 44.5V16H36.5C35.9696 16 35.4609 15.7893 35.0858 15.4142C34.7107 15.0391 34.5 14.5304 34.5 14V4ZM31.6 6C31.904 6 32.204 6.02067 32.5 6.062V9.12C32.2062 9.04285 31.9038 9.0032 31.6 9.002H16.402C15.6212 9.00194 14.8629 9.26293 14.2475 9.74347C13.6322 10.224 13.1952 10.8965 13.006 11.654L11.422 18H37V21H10.5C10.1022 21 9.72064 21.158 9.43934 21.4393C9.15804 21.7206 9 22.1022 9 22.5V34H37V37H34.998L35 39.494C35 39.77 35.224 39.994 35.5 39.994H37V42.994H35.5C34.5717 42.994 33.6815 42.6252 33.0251 41.9689C32.3687 41.3125 32 40.4223 32 39.494L31.998 37H16.008V39.494C16.008 40.4223 15.6393 41.3125 14.9829 41.9689C14.3265 42.6252 13.4363 42.994 12.508 42.994H9.5C8.57174 42.994 7.6815 42.6252 7.02513 41.9689C6.36875 41.3125 6 40.4223 6 39.494V22.5C6 20.87 6.866 19.442 8.164 18.654L8.578 17H7.5C7.13752 17 6.78732 16.8687 6.51414 16.6305C6.24096 16.3922 6.0633 16.0631 6.014 15.704L6 15.5C6.00002 15.1375 6.13129 14.7873 6.36953 14.5141C6.60778 14.241 6.93689 14.0633 7.296 14.014L7.5 14H9.326L10.098 10.924C10.4495 9.51758 11.261 8.26903 12.4037 7.37683C13.5463 6.48464 14.9543 6.00001 16.404 6H31.6ZM13.006 37H8.998L9 39.494C9 39.77 9.224 39.994 9.5 39.994H12.508C12.6406 39.994 12.7678 39.9413 12.8616 39.8476C12.9553 39.7538 13.008 39.6266 13.008 39.494L13.006 37ZM20.496 28H27.5C27.8799 28.0006 28.2454 28.1453 28.5227 28.405C28.8 28.6646 28.9685 29.0197 28.9941 29.3988C29.0198 29.7778 28.9007 30.1524 28.6608 30.447C28.421 30.7416 28.0783 30.9342 27.702 30.986L27.5 31H20.496C20.116 30.9999 19.7501 30.8555 19.4724 30.5961C19.1947 30.3366 19.0259 29.9814 18.9999 29.6022C18.974 29.2231 19.093 28.8482 19.3329 28.5534C19.5727 28.2586 19.9155 28.0658 20.292 28.014L20.496 28ZM34 24C34.5304 24 35.0391 24.2107 35.4142 24.5858C35.7893 24.9609 36 25.4696 36 26C36 26.5304 35.7893 27.0391 35.4142 27.4142C35.0391 27.7893 34.5304 28 34 28C33.4696 28 32.9609 27.7893 32.5858 27.4142C32.2107 27.0391 32 26.5304 32 26C32 25.4696 32.2107 24.9609 32.5858 24.5858C32.9609 24.2107 33.4696 24 34 24ZM14 24C14.5304 24 15.0391 24.2107 15.4142 24.5858C15.7893 24.9609 16 25.4696 16 26C16 26.5304 15.7893 27.0391 15.4142 27.4142C15.0391 27.7893 14.5304 28 14 28C13.4696 28 12.9609 27.7893 12.5858 27.4142C12.2107 27.0391 12 26.5304 12 26C12 25.4696 12.2107 24.9609 12.5858 24.5858C12.9609 24.2107 13.4696 24 14 24Z" fill="#695441"/>
</svg>
