<svg width="30" height="30" viewBox="0 0 30 30" fill="none" xmlns="http://www.w3.org/2000/svg">
<path d="M18.75 15H21.25C21.25 13.3424 20.5915 11.7527 19.4194 10.5806C18.2473 9.40848 16.6576 8.75 15 8.75V11.25C15.9946 11.25 16.9484 11.6451 17.6517 12.3483C18.3549 13.0516 18.75 14.0054 18.75 15ZM23.75 15H26.25C26.25 8.75 21.2125 3.75 15 3.75V6.25C19.825 6.25 23.75 10.1625 23.75 15ZM25 19.375C23.4375 19.375 21.9375 19.125 20.5375 18.6625C20.1 18.525 19.6125 18.625 19.2625 18.975L16.5125 21.725C12.9668 19.9164 10.0836 17.0332 8.275 13.4875L11.025 10.7375C11.375 10.3875 11.475 9.9 11.3375 9.4625C10.8641 8.02237 10.6236 6.51593 10.625 5C10.625 4.66848 10.4933 4.35054 10.2589 4.11612C10.0245 3.8817 9.70652 3.75 9.375 3.75H5C4.66848 3.75 4.35054 3.8817 4.11612 4.11612C3.8817 4.35054 3.75 4.66848 3.75 5C3.75 10.6359 5.98883 16.0409 9.97398 20.026C13.9591 24.0112 19.3641 26.25 25 26.25C25.3315 26.25 25.6495 26.1183 25.8839 25.8839C26.1183 25.6495 26.25 25.3315 26.25 25V20.625C26.25 20.2935 26.1183 19.9755 25.8839 19.7411C25.6495 19.5067 25.3315 19.375 25 19.375Z" fill="#1F1C18"/>
</svg>
