<svg width="50" height="50" viewBox="0 0 50 50" fill="none" xmlns="http://www.w3.org/2000/svg">
<mask id="mask0_460_1344" style="mask-type:luminance" maskUnits="userSpaceOnUse" x="0" y="0" width="50" height="50">
<path d="M0 0H50V50H0V0Z" fill="white"/>
</mask>
<g mask="url(#mask0_460_1344)">
<path d="M5.46875 21.9484H10.6469L8.85312 17.8234C8.20085 16.3222 6.98568 15.1367 5.46875 14.5219V21.9484ZM5.46875 29.7125H14.0359L13.9547 29.5562L12.0172 25.1H5.46875V29.7125ZM5.46875 37.475H14.8187V32.8594H5.46875V37.475Z" fill="#695441"/>
<path d="M16.9313 1.5625C15.1579 1.56074 13.4451 2.20762 12.1156 3.38125C11.0619 2.45367 9.7629 1.84983 8.3745 1.64216C6.98611 1.43449 5.56728 1.63182 4.28825 2.21047C3.00922 2.78912 1.9243 3.72451 1.16367 4.90442C0.403031 6.08434 -0.00101577 7.45866 1.91772e-06 8.8625V45.3125C1.91772e-06 46.1413 0.329242 46.9362 0.915293 47.5222C1.50134 48.1083 2.2962 48.4375 3.125 48.4375H5.46875C6.29755 48.4375 7.09241 48.1083 7.67846 47.5222C8.26451 46.9362 8.59375 46.1413 8.59375 45.3125V43.75H11.6938V45.3125C11.6938 46.1413 12.023 46.9362 12.609 47.5222C13.1951 48.1083 13.99 48.4375 14.8188 48.4375H17.1625C17.9913 48.4375 18.7862 48.1083 19.3722 47.5222C19.9583 46.9362 20.2875 46.1413 20.2875 45.3125V36.1375L25.2172 46.6406C25.4695 47.178 25.8696 47.6323 26.3707 47.9506C26.8719 48.2688 27.4533 48.4377 28.0469 48.4375H46.875C47.3992 48.4374 47.9149 48.3054 48.3748 48.0537C48.8346 47.802 49.2237 47.4387 49.5063 46.9972C49.7889 46.5558 49.9559 46.0503 49.9919 45.5273C50.028 45.0044 49.9319 44.4808 49.7125 44.0047L42.6047 28.5937C41.7897 26.8339 40.4892 25.3432 38.8562 24.297C37.2231 23.2507 35.3254 22.6924 33.3859 22.6875H33.1734L30.1219 15.6562C28.9683 12.999 26.8715 10.8632 24.2359 9.66093V8.87968C24.2374 7.91942 24.0495 6.9683 23.6831 6.0807C23.3166 5.19311 22.7788 4.38645 22.1004 3.70686C21.422 3.02728 20.6163 2.48809 19.7293 2.12014C18.8423 1.75219 17.8915 1.5627 16.9313 1.5625ZM16.9313 4.68749C17.4796 4.68708 18.0227 4.79479 18.5294 5.00446C19.0362 5.21413 19.4966 5.52164 19.8843 5.90941C20.2721 6.29717 20.5796 6.75759 20.7893 7.26431C20.999 7.77103 21.1067 8.31411 21.1063 8.8625V11.8969C22.4563 12.1764 23.7193 12.7766 24.7886 13.6468C25.8579 14.517 26.7021 15.6318 27.25 16.8969L31.1188 25.8031H33.3813C34.725 25.803 36.0406 26.1879 37.1724 26.9124C38.3041 27.6368 39.2046 28.6703 39.7672 29.8906L46.875 45.3125H44.2938L37.8125 31.25L37.6391 30.875C37.264 30.0614 36.6636 29.3723 35.909 28.8893C35.1544 28.4064 34.2772 28.1498 33.3813 28.15H30.6063C30.513 28.15 30.4199 28.1416 30.3281 28.125C30.0749 28.0794 29.8369 27.9719 29.6352 27.8122C29.4335 27.6525 29.2743 27.4454 29.1719 27.2094L25.0984 17.825C24.6136 16.7074 23.8126 15.7558 22.7941 15.0873C21.7756 14.4189 20.5839 14.0627 19.3656 14.0625H18.7984V14.0375L18.7625 14.0562V8.8625C18.7625 8.37682 18.5696 7.91103 18.2261 7.56761C17.8827 7.22418 17.4169 7.03125 16.9313 7.03125C16.4456 7.03125 15.9798 7.22418 15.6364 7.56761C15.2929 7.91103 15.1 8.37682 15.1 8.8625V14.0375L12.7563 14.0359V8.8625C12.7558 8.31411 12.8636 7.77103 13.0732 7.26431C13.2829 6.75759 13.5904 6.29717 13.9782 5.90941C14.3659 5.52164 14.8263 5.21413 15.3331 5.00446C15.8398 4.79479 16.3829 4.68708 16.9313 4.68749ZM11.475 14.0344L9.13125 14.0328V8.85937C9.13125 8.37369 8.93832 7.90791 8.59489 7.56448C8.25147 7.22106 7.78568 7.02812 7.3 7.02812C6.81432 7.02812 6.34854 7.22106 6.00511 7.56448C5.66169 7.90791 5.46875 8.37369 5.46875 8.85937V12.0469C6.79688 12.425 8.01406 13.1094 9.01719 14.0578C9.86414 14.8588 10.5393 15.8236 11.0016 16.8937L15.8906 28.125L15.9016 28.15V28.1531H18.1641C19.2548 28.2363 20.3151 28.5522 21.2734 29.0797C22.8266 29.9953 24.1531 31.475 24.8578 33.0031L30.6266 45.3125H28.0469L22.7344 33.9844C22.3286 33.0653 21.6974 32.2636 20.8993 31.6534C20.1012 31.0432 19.162 30.6443 18.1688 30.4937H17.1672V45.3125H14.8234V40.625H5.46875V45.3125H3.125V8.8625C3.125 7.75522 3.56487 6.69329 4.34783 5.91032C5.1308 5.12736 6.19272 4.68749 7.3 4.68749C8.40728 4.68749 9.46921 5.12736 10.2522 5.91032C11.0351 6.69329 11.475 7.75522 11.475 8.8625V14.0344Z" fill="#695441"/>
</g>
</svg>
