<svg width="35" height="46" viewBox="0 0 35 46" fill="none" xmlns="http://www.w3.org/2000/svg">
<path d="M7.455 45.5V24.1037C5.37295 23.8242 3.60949 22.9842 2.16461 21.5837C0.721538 20.1847 0 18.4708 0 16.4418V0.5H2.69231V16.4395H7.455V0.5H10.1473V16.4395H14.9127V0.5H17.605V16.4395C17.605 18.47 16.8826 20.1847 15.4377 21.5837C13.991 22.9842 12.2276 23.8242 10.1473 24.1037V45.5H7.455ZM32.305 45.5V26.5526H25.6819V11.1579C25.6819 8.51947 26.5273 6.18263 28.2181 4.14737C29.9124 2.11053 32.1731 0.925526 35 0.592369V45.5H32.305Z" fill="#695441"/>
</svg>
