<svg width="70" height="70" viewBox="0 0 70 70" fill="none" xmlns="http://www.w3.org/2000/svg">
<path d="M20.8794 3.89942C20.6679 3.89933 20.4569 3.90079 20.2464 3.90379C17.4398 3.94344 14.7142 4.26979 12.2655 4.98414C8.34772 6.12711 5.04624 8.36151 3.69094 12.0572C2.48153 15.3552 3.53618 18.37 5.65313 20.6857C7.77008 23.0015 10.8672 24.8711 14.1488 26.7387C17.4306 28.6063 20.9048 30.4536 23.732 32.5096C26.5593 34.5654 28.6859 36.8027 29.5043 39.3582C29.6579 39.8376 29.542 41.3344 29.2416 42.5629C29.1219 43.0524 28.9944 43.4814 28.8793 43.8492L31.2782 44.4281C31.393 44.0523 31.517 43.6181 31.632 43.1477C31.9722 41.7566 32.3365 40.133 31.848 38.6077C30.7853 35.2892 28.2116 32.7242 25.1793 30.5194C22.147 28.3144 18.6026 26.4419 15.3663 24.6001C12.13 22.7584 9.2096 20.929 7.46944 19.0253C5.72928 17.1218 5.08739 15.3972 6.00163 12.9044C7.02674 10.1088 9.48987 8.35754 12.9547 7.34651C16.4196 6.33561 20.7932 6.16252 25.1123 6.56981C29.4313 6.97723 33.703 7.95737 36.9795 9.15188C38.3937 9.66745 39.6216 10.2248 40.5756 10.7731C41.0153 10.4454 41.4799 10.1172 41.968 9.82426C42.2652 9.64584 42.575 9.47877 42.8987 9.33454C42.709 9.20187 42.5162 9.07368 42.3204 8.95008C41.105 8.18528 39.5792 7.48036 37.8226 6.83997C34.3094 5.55918 29.8768 4.54719 25.3435 4.11954C23.856 3.97926 22.3587 3.90079 20.8794 3.89942ZM44.9287 11.3216C44.8793 11.3232 44.8285 11.3267 44.7763 11.332C44.3577 11.373 43.8213 11.5819 43.2346 11.9341C42.3979 12.4365 41.5199 13.1953 40.6045 13.8773L49.1425 25.371L51.9107 24.7221C51.328 20.5743 49.9665 14.7903 45.9581 11.6979C45.5628 11.3928 45.275 11.31 44.9287 11.3216ZM52.1475 27.1942L49.7518 27.7559L56.6238 57.0765H59.1515L52.1475 27.1942ZM7.84801 43.5578L7.57936 46.0841C8.37725 46.1117 9.19948 46.1497 10.0418 46.1982L10.295 43.8182L7.84801 43.5578ZM24.6894 45.3696L24.0072 47.8794L32.249 49.8783L33.0013 47.3756L24.6894 45.3696ZM4.61229 48.4893C4.4846 48.4893 4.46122 48.4756 4.26256 48.7496C4.06391 49.0236 3.82548 49.5825 3.65964 50.3224C3.32768 51.8023 3.24729 53.9651 3.37936 56.1258C3.51157 58.2864 3.84858 60.4674 4.26366 62.0333C4.47106 62.8162 4.70663 63.4501 4.89092 63.7956C4.9318 63.8723 4.93577 63.8681 4.96612 63.9124H6.23692C5.79634 62.9226 5.56888 61.8513 5.56932 60.7679C5.56932 56.4784 9.07301 52.9749 13.3623 52.9749C17.6516 52.9749 21.1553 56.4784 21.1553 60.7679C21.1557 61.8512 20.9283 62.9226 20.4878 63.9124H32.8629C32.9255 63.8298 33.0428 63.6407 33.1567 63.3245C33.4028 62.6406 33.6097 61.5392 33.7409 60.3585C34.0034 57.997 34.0068 55.2991 34.0068 54.2054C34.0068 54.1199 33.9636 53.9296 33.5604 53.5773C33.1573 53.2249 32.4448 52.8041 31.5094 52.407C29.6382 51.6123 26.8924 50.8857 23.7976 50.3003C17.6082 49.1294 9.98465 48.4893 4.61229 48.4893ZM13.3623 55.4358C10.403 55.4358 8.03026 57.8084 8.03026 60.7679C8.03026 63.7271 10.403 66.0999 13.3623 66.0999C16.3217 66.0999 18.6943 63.7271 18.6943 60.7679C18.6943 57.8084 16.3217 55.4358 13.3623 55.4358ZM55.6854 59.5374L54.7283 61.4515H61.6839L60.7269 59.5374H55.6854ZM49.5928 63.9124V65.8265H66.8193V63.9124H49.5928Z" fill="#695441"/>
</svg>
