<svg width="60" height="60" viewBox="0 0 60 60" fill="none" xmlns="http://www.w3.org/2000/svg">
<path d="M17.8969 3.34278C17.7156 3.3427 17.5348 3.34395 17.3543 3.34653C14.9487 3.38051 12.6124 3.66024 10.5136 4.27254C7.15547 5.25223 4.32562 7.16743 3.16395 10.3351C2.1273 13.162 3.03129 15.7461 4.84582 17.7311C6.66035 19.716 9.315 21.3185 12.1279 22.9193C14.9408 24.5201 17.9187 26.1035 20.342 27.8658C22.7654 29.6279 24.5882 31.5456 25.2896 33.7361C25.4214 34.1469 25.322 35.4299 25.0645 36.4829C24.9619 36.9025 24.8527 37.2702 24.754 37.5854L26.8102 38.0816C26.9086 37.7596 27.0149 37.3874 27.1134 36.9841C27.405 35.7918 27.7173 34.4002 27.2986 33.0927C26.3877 30.2483 24.1816 28.0498 21.5825 26.1599C18.9834 24.2699 15.9453 22.6649 13.1714 21.0863C10.3975 19.5076 7.89422 17.9395 6.40266 16.3078C4.91109 14.6762 4.3609 13.198 5.14453 11.0613C6.0232 8.66508 8.13445 7.16403 11.1043 6.29743C14.0742 5.43094 17.823 5.28258 21.5251 5.63168C25.2271 5.9809 28.8886 6.82102 31.697 7.84489C32.9092 8.2868 33.9616 8.76457 34.7794 9.2345C35.1562 8.9536 35.5545 8.67235 35.9728 8.42121C36.2276 8.26828 36.4931 8.12508 36.7706 8.00145C36.608 7.88773 36.4427 7.77786 36.2749 7.67192C35.2331 7.01637 33.9253 6.41215 32.4197 5.86325C29.4083 4.76543 25.609 3.89801 21.7233 3.53145C20.4483 3.41121 19.1648 3.34395 17.8969 3.34278ZM38.5106 9.70465C38.4683 9.70606 38.4247 9.70903 38.38 9.71356C38.0211 9.74871 37.5614 9.92778 37.0585 10.2297C36.3414 10.6603 35.5888 11.3107 34.8041 11.8952L42.1225 21.747L44.4952 21.1908C43.9957 17.6355 42.8287 12.6778 39.3929 10.0272C39.0541 9.76571 38.8075 9.69469 38.5106 9.70465ZM44.6981 23.3098L42.6446 23.7912L48.535 48.9231H50.7015L44.6981 23.3098ZM6.72715 37.3357L6.49687 39.5011C7.18078 39.5248 7.88555 39.5574 8.60754 39.5988L8.82457 37.5588L6.72715 37.3357ZM21.1627 38.8887L20.5779 41.0399L27.6423 42.7533L28.2871 40.6081L21.1627 38.8887ZM3.95367 41.5627C3.84422 41.5627 3.82418 41.5509 3.65391 41.7858C3.48363 42.0206 3.27926 42.4997 3.13711 43.1339C2.85258 44.4024 2.78367 46.2563 2.89687 48.1083C3.0102 49.9602 3.29906 51.8296 3.65484 53.1718C3.83262 53.8429 4.03453 54.3863 4.1925 54.6824C4.22754 54.7481 4.23094 54.7445 4.25695 54.7825H5.34621C4.96857 53.9341 4.7736 53.0158 4.77398 52.0872C4.77398 48.4105 7.77715 45.4075 11.4537 45.4075C15.1302 45.4075 18.1334 48.4105 18.1334 52.0872C18.1338 53.0158 17.9389 53.9341 17.5612 54.7825H28.1685C28.2221 54.7117 28.3227 54.5496 28.4203 54.2786C28.6312 53.6924 28.8086 52.7483 28.9211 51.7363C29.1461 49.7121 29.149 47.3997 29.149 46.4622C29.149 46.3889 29.112 46.2258 28.7664 45.9238C28.4208 45.6218 27.8101 45.2611 27.0083 44.9207C25.4045 44.2396 23.0509 43.6167 20.3982 43.1149C15.093 42.1113 8.55855 41.5627 3.95367 41.5627ZM11.4537 47.5168C8.91715 47.5168 6.88336 49.5505 6.88336 52.0872C6.88336 54.6237 8.91715 56.6575 11.4537 56.6575C13.9903 56.6575 16.024 54.6237 16.024 52.0872C16.024 49.5505 13.9903 47.5168 11.4537 47.5168ZM47.7306 51.0325L46.9103 52.6731H52.8722L52.0519 51.0325H47.7306ZM42.5084 54.7825V56.4231H57.274V54.7825H42.5084Z" fill="#695441"/>
</svg>
