<svg width="37" height="36" viewBox="0 0 37 36" fill="none" xmlns="http://www.w3.org/2000/svg">
<path d="M24.444 13.5971L33.8525 4.24646L33.8218 9.54677C33.812 9.98865 34.1625 10.3731 34.605 10.3633L35.1661 10.3627C35.6085 10.3523 35.9743 10.0893 35.9836 9.6474L36.0066 1.75162C36.0066 1.74399 35.9765 1.73798 35.9765 1.73032L36.0197 1.33001C36.0241 1.10798 35.9722 0.91001 35.8289 0.768403C35.6873 0.625669 35.4887 0.538716 35.2683 0.544731L34.8686 0.554028C34.8609 0.554028 34.8549 0.556763 34.8467 0.557891L27.0029 0.523438C26.5611 0.533281 26.1952 0.898594 26.1853 1.34102L26.1843 1.90214C26.2515 2.42332 26.6611 2.72792 27.103 2.71808L32.2726 2.73175L22.8975 12.05C22.4704 12.4771 22.4704 13.1694 22.8975 13.5971C23.3246 14.0236 24.017 14.0236 24.444 13.5971ZM12.59 22.4027L3.18156 31.7242L3.21164 26.4529C3.22203 26.0104 2.8709 25.626 2.42903 25.6358L1.83351 25.6369C1.39055 25.6479 1.0252 25.9104 1.0159 26.3528L0.992934 34.2486C0.992934 34.2562 1.02301 34.2611 1.02301 34.2699L0.979809 34.6691C0.974887 34.8911 1.02684 35.0902 1.17067 35.2308C1.31176 35.374 1.51082 35.4604 1.73067 35.455L2.13098 35.4451C2.1386 35.4451 2.14407 35.4418 2.15286 35.4418L10.0311 35.4763C10.473 35.4654 10.8383 35.1 10.8487 34.6582L10.8498 34.0965C10.7825 33.5765 10.3729 33.2708 9.93102 33.2806L4.76145 33.2669L14.136 23.9498C14.5631 23.5227 14.5631 22.8304 14.136 22.4033C13.7089 21.9761 13.017 21.9756 12.5899 22.4027H12.59ZM36.0072 34.248L35.9843 26.3522C35.9744 25.9097 35.6085 25.6472 35.1667 25.6363L34.6056 25.6352C34.1632 25.6253 33.8132 26.0103 33.8225 26.4522L33.8531 31.7525L24.4441 22.4026C24.017 21.9755 23.3246 21.9755 22.8975 22.4026C22.4704 22.8297 22.4704 23.5221 22.8975 23.9492L32.2721 33.2663L27.103 33.2799C26.6611 33.2701 26.2515 33.5758 26.1843 34.0959L26.1853 34.6575C26.1957 35.0999 26.5616 35.4653 27.0029 35.4757L34.8473 35.4412C34.8555 35.4412 34.8615 35.4445 34.8692 35.4445L35.2689 35.4543C35.4893 35.4598 35.6884 35.3734 35.8295 35.2301C35.9728 35.089 36.0242 34.8905 36.0203 34.6685L35.9772 34.2692C35.9772 34.2605 36.0073 34.2556 36.0073 34.248L36.0072 34.248ZM4.76148 2.73261L9.93164 2.71904C10.3735 2.72888 10.7831 2.42373 10.8504 1.90307L10.8493 1.34146C10.8383 0.899072 10.4729 0.533179 10.0317 0.523882L2.15286 0.557788C2.14411 0.556694 2.13864 0.55396 2.13098 0.55396L1.73067 0.544629C1.51086 0.538647 1.31125 0.625601 1.17067 0.768301C1.02684 0.909941 0.974921 1.10791 0.979809 1.32994L1.02301 1.73025C1.02301 1.73788 0.992934 1.74338 0.992934 1.75158L1.0159 9.64736C1.02575 10.0892 1.39109 10.3523 1.83351 10.3627L2.42906 10.3632C2.87094 10.373 3.22145 9.98858 3.21161 9.5467L3.18153 4.27538L12.59 13.5969C13.0165 14.024 13.7095 14.024 14.1366 13.5969C14.5637 13.1697 14.5637 12.4769 14.1366 12.0497L4.76148 2.73261Z" fill="#1F1C18"/>
</svg>
