<svg width="70" height="70" viewBox="0 0 70 70" fill="none" xmlns="http://www.w3.org/2000/svg">
<path d="M36.1958 10.6573C38.2262 8.44616 40.9818 7.03589 43.9629 6.68219C46.9439 6.32849 49.953 7.05477 52.4445 8.72934L52.9695 9.10267L53.9116 9.80851C55.1973 10.7724 56.2574 12.005 57.018 13.4205C57.7786 14.836 58.2215 16.4002 58.3158 18.0043L58.3333 18.6518V61.2498C58.3324 61.9932 58.0478 62.7082 57.5375 63.2487C57.0271 63.7893 56.3297 64.1146 55.5875 64.1582C54.8454 64.2017 54.1147 63.9603 53.5446 63.4832C52.9745 63.006 52.6082 62.3292 52.5204 61.591L52.4999 61.2498V18.6518C52.4983 17.9244 52.3456 17.2053 52.0513 16.54C51.7571 15.8747 51.3278 15.2779 50.7908 14.7873L50.4116 14.4752L49.4695 13.7693C48.3938 12.961 47.1 12.4949 45.756 12.4314C44.4119 12.368 43.0799 12.7101 41.9328 13.4135L41.4866 13.711L43.6974 14.9885C46.2843 16.4817 48.1999 18.9101 49.0496 21.7736C49.8993 24.637 49.6185 27.7172 48.2649 30.3798L47.9674 30.9252L46.5091 33.451C46.1521 34.0698 45.5804 34.536 44.9025 34.7613C44.2245 34.9865 43.4875 34.9551 42.8312 34.6731L42.5249 34.5185L17.2666 19.9352C16.6471 19.5781 16.1804 19.0059 15.9551 18.3273C15.7298 17.6487 15.7616 16.911 16.0445 16.2543L16.1991 15.951L17.6574 13.4252C19.1511 10.8389 21.5798 8.92387 24.4431 8.07468C27.3065 7.22549 30.3865 7.50678 33.0487 8.86059L33.5941 9.15226L36.1958 10.6573ZM19.6874 44.9077C20.3573 45.2945 20.8461 45.9315 21.0463 46.6787C21.2465 47.4259 21.1417 48.2219 20.7549 48.8918L19.2966 51.4177C18.9071 52.0821 18.2706 52.5655 17.5259 52.7624C16.7813 52.9592 15.9891 52.8536 15.3221 52.4685C14.6551 52.0834 14.1675 51.4501 13.9657 50.7068C13.7639 49.9635 13.8643 49.1706 14.2449 48.501L15.7033 45.9752C16.0901 45.3053 16.7271 44.8165 17.4743 44.6163C18.2214 44.4161 19.0175 44.5209 19.6874 44.9077ZM26.1974 45.2985C26.5671 44.6493 27.1718 44.1666 27.8869 43.9501C28.6019 43.7336 29.3728 43.7997 30.0405 44.1349C30.7083 44.4701 31.2219 45.0487 31.4755 45.7515C31.7292 46.4542 31.7034 47.2275 31.4037 47.9118L31.2491 48.2152L29.7908 50.741C29.4167 51.381 28.813 51.8546 28.1023 52.0655C27.3917 52.2763 26.6274 52.2087 25.9648 51.8763C25.3022 51.5439 24.791 50.9716 24.5352 50.2759C24.2793 49.5801 24.298 48.8131 24.5874 48.1306L24.7391 47.8243L26.1974 45.2985ZM15.0266 35.481C15.6965 35.8678 16.1853 36.5048 16.3855 37.252C16.5857 37.9992 16.4809 38.7953 16.0941 39.4652L14.6358 41.991C14.4457 42.3254 14.1913 42.6189 13.8873 42.8545C13.5833 43.0902 13.2357 43.2634 12.8645 43.3642C12.4932 43.465 12.1058 43.4913 11.7243 43.4418C11.3429 43.3922 10.975 43.2676 10.6419 43.0753C10.3088 42.883 10.017 42.6267 9.78335 42.3211C9.5497 42.0156 9.3788 41.6668 9.28048 41.2949C9.18216 40.9231 9.15837 40.5354 9.21048 40.1543C9.26259 39.7732 9.38957 39.4062 9.5841 39.0743L11.0424 36.5485C11.4292 35.8786 12.0663 35.3898 12.8134 35.1896C13.5606 34.9894 14.3567 35.0943 15.0266 35.481ZM25.5208 34.8043C26.1906 35.1911 26.6794 35.8282 26.8796 36.5753C27.0798 37.3225 26.975 38.1186 26.5883 38.7885L25.1299 41.3143C24.7404 41.9788 24.1039 42.4622 23.3593 42.659C22.6147 42.8559 21.8224 42.7502 21.1554 42.3651C20.4884 41.98 20.0008 41.3467 19.799 40.6034C19.5972 39.8602 19.6976 39.0672 20.0783 38.3977L21.5366 35.8718C21.9234 35.202 22.5604 34.7132 23.3076 34.513C24.0548 34.3128 24.8509 34.4176 25.5208 34.8043ZM32.0308 35.1952C32.4004 34.5459 33.0051 34.0633 33.7202 33.8468C34.4353 33.6303 35.2061 33.6964 35.8739 34.0316C36.5416 34.3668 37.0552 34.9454 37.3089 35.6481C37.5625 36.3509 37.5368 37.1242 37.237 37.8085L37.0824 38.1118L35.6241 40.6377C35.2512 41.2804 34.6469 41.7566 33.9348 41.969C33.2227 42.1813 32.4563 42.1139 31.7923 41.7803C31.1282 41.4468 30.6165 40.8724 30.3616 40.1744C30.1067 39.4763 30.1279 38.7073 30.4208 38.0243L30.5724 37.721L32.0308 35.1952ZM20.8599 25.3777C21.5298 25.7645 22.0186 26.4015 22.2188 27.1487C22.419 27.8958 22.3142 28.6919 21.9274 29.3618L20.4691 31.8877C20.279 32.2221 20.0246 32.5155 19.7206 32.7512C19.4166 32.9869 19.069 33.1601 18.6978 33.2609C18.3266 33.3617 17.9391 33.388 17.5577 33.3384C17.1762 33.2889 16.8083 33.1643 16.4752 32.972C16.1421 32.7797 15.8503 32.5233 15.6167 32.2178C15.383 31.9122 15.2121 31.5635 15.1138 31.1916C15.0155 30.8197 14.9917 30.4321 15.0438 30.051C15.0959 29.6699 15.2229 29.3028 15.4174 28.971L16.8758 26.4452C17.2626 25.7753 17.8996 25.2865 18.6468 25.0863C19.3939 24.8861 20.19 24.9909 20.8599 25.3777Z" fill="#695441"/>
</svg>
