<svg width="70" height="70" viewBox="0 0 70 70" fill="none" xmlns="http://www.w3.org/2000/svg">
<path d="M34.9999 53.7338C32.6899 53.7338 30.7289 52.9278 29.117 51.3159C27.5031 49.704 26.6961 47.743 26.6961 45.433C26.6961 43.123 27.5031 41.161 29.117 39.5471C30.727 37.9372 32.6879 37.1321 34.9999 37.1321C37.3118 37.1321 39.2728 37.9372 40.8828 39.5471C42.4967 41.161 43.3036 43.123 43.3036 45.433C43.3036 47.743 42.4967 49.704 40.8828 51.3159C39.2689 52.9278 37.3079 53.7338 34.9999 53.7338ZM14.4491 25.1971L12.3345 23.1496C15.2609 20.2816 18.6248 18.0066 22.4261 16.3246C26.2217 14.6388 30.4129 13.7959 34.9999 13.7959C39.5868 13.7959 43.7791 14.6369 47.5766 16.3188C51.3741 18.0008 54.7379 20.2758 57.6682 23.1438L55.5507 25.1942C52.8479 22.5342 49.7329 20.4556 46.2057 18.9584C42.6785 17.4612 38.9432 16.7135 34.9999 16.7155C31.0566 16.7174 27.3213 17.466 23.7941 18.9613C20.2668 20.4566 17.1518 22.5352 14.4491 25.1971ZM47.2616 33.3346C45.5193 31.6741 43.6439 30.4335 41.6353 29.613C39.6267 28.7924 37.4149 28.3821 34.9999 28.3821C32.5849 28.3821 30.3857 28.7924 28.4024 29.613C26.4191 30.4335 24.531 31.6741 22.7382 33.3346L20.6236 31.2871C22.7256 29.3816 24.9617 27.934 27.332 26.9442C29.7023 25.9545 32.2582 25.4626 34.9999 25.4684C37.7416 25.4742 40.2956 25.9681 42.662 26.9501C45.0284 27.932 47.2606 29.3787 49.3586 31.2901L47.2616 33.3346Z" fill="#695441"/>
</svg>
